<?xml version="1.0" encoding="UTF-8"?>
<svg id="Layer_1" data-name="Layer 1" xmlns="http://www.w3.org/2000/svg" viewBox="0 0 720 792">
  <defs>
    <style>
      .cls-1, path, polygon {
        fill: none;
        stroke: #7b7b7b;
        stroke-width: 2px;
      }
    </style>
  </defs>
  <path d="M487.54,759.59l-111.65-25.43c-2.74,13.99-4.32,28.38-11.04,41.85l-10.36.43c-6.49-12.97-8.45-26.91-11.61-41.8l-107.88,24.12c-.16-.43-.53-.89-1-1.34l78.35-17.76-.87-2.89c-.18-.75.97-1.42,1.62-.33.26.3.39,1.08-.56,2.76l30.38-6.36-3.44-18.96-107.13,37.33c-.56-6.86-.84-15.1,3.86-22.22l85.89-52.47c6.55-4.96,9.74-11.54,8.11-19.56-8.58-37.74-12.17-75.04-11.48-114l.17-143.48c-18.11.91-35.74.49-54.14.32-1.12,5.38-.6,10.4-3,15.49-3.7-3.87-3.3-9.02-3.55-14.74-2.63-1.18-6.84-1.82-10.73.27-.56,1.94.11,5.8-2.85,9.51-2.49-3.06-2.6-6.69-2.55-9.28-2.35-2.26-5.96-.81-9.18-1.16l-37.74,10.61c-.58,5.87.4,11.58-3.09,16.98-3.85-4.12-3.08-9.36-3.69-14.59l-66.64,19.38-3.02,18.75c-.44-.07-1.68.1-1.49.08-3.26-4.72-1.11-10.22-2.38-16.57l-97.8,28.27c-.68,2.93,1.29,6.02-2.14,8.54-.58-15.8.14-31.43,9.27-44.29l205.01-105.68c2.46-.36,3.1-2.21,2.82-3.92-.78-1.32-2.71-2.1-5.64-1.37-4.97-22.83-6.9-46.23-.63-69.78,12.76-1.73,25.36-2.17,38.49.52,1.52,10.44,5.86,20,5.6,29.11l-4.44,26.54,47.62-24.07c6.26-7.86,3.23-16.4,5.37-25.67l.85-99.73c-1.04-26.04.29-50.99,4.57-76.42-1.41-5.51-.06-10.08,4.62-13.28,4.23-16.87,12.58-31.44,22.52-44.99,3.88-2.13,6.59-4.19,11.04-2.95,2.65.67,7.88,2.94,7.59,6.31-2.99,3.92,2.25,7.35.77,11.72-3.15-6.07-4.32-12.95-10.35-17.44-6.46,3.98-7.98,11.08-11.06,17.55.07-6.3,3.3-10.48,6.61-15.66-7.02,3.4-9.68,9.78-12.98,16.66,12.13-.67,22.81-.77,34.62.08-1.81-5.5-6.37-7.87-6.97-13.41,12.55,13.66,15.53,31.51,23.23,46.05,6.8,33.34,8.48,69.72,6.48,106.62l1.15,79.41c2.13,8.54-.93,16.71,4.62,24.57l47.34,23.73c-1.49-19.26-2.85-37.94,2.48-55.55,12.89-2.46,25.16-1.64,37.85-.15,2.73,5.63,3.07,11.48,3.92,17.75,3.69,4.29,4.53,11.19-.14,15.37.29,12.41-1.72,24.42-4.15,36.74-2.36-.55-4.01-.1-5.13.75-.58,1.5-.59,3.38,1.45,4.27l201.81,103.82c7.47,4.77,9.5,12.23,12.2,20.53l.99,26.03c-3.29-2.53-.64-6.22-2.91-8.69l-96.96-28.54c-.43,7.03.37,12.64-3.29,17.96-3.29-6.64-2.19-12.91-3.39-19.61l-66.38-19.71c-1.76,4.97.06,10.54-4.28,15.13-2.63-5.9-2.69-11.53-3.35-17.6l-36.61-10.26c-3.29.58-6.59-1.5-9.6,1.12-.16,2.08-.77,5.95-2.88,8.95-2.8-2.84-2.66-6.66-2.59-8.94-2.96-2.56-6.72-1.22-10.78-1.21-1,4.99.72,10.19-3.56,15.25-2.86-5.26-2.36-10.11-3.22-15.66l-54.12.23-.35,166.84c-.84,32.38-4.55,63.37-12.06,94.77.35,8.01,5.47,13.94,12.76,17.44l83.84,51.49c3.33,9.96,2.71,19.52,2.94,29.52Z"/>
  <path class="cls-1" d="M381.03,580h-43.03s-.01-182.56-.01-182.56c14.16.79,27.76.87,42.96.02l.08,182.53Z"/>
  <path class="cls-1" d="M31.56,440.68c-2.04-.46-1.88-2.49-1.05-4.4.05-.73,1.92-.78,2.96-2.13l76.34-38.86c.4,1.78-.16,3.09.13,3.31,1.38,1.05,2.6.29,2.91-.23.16-1.06-.13-2.26-2.12-3.44l207.42-105.73.95,52.85-66.2,18.25L31.56,440.68Z"/>
  <path class="cls-1" d="M401.79,284.66c-2.23-2.91-2.52-8.74-.27-11.62,1.87,3.89,2.25,4.33,4.41,6.53-.5.93-3.33,1.01-3.65,3.46.77.7,1.02.95,1.31,1.14,1.59,1.24,1.43,3.32.32,6.34l203.43,103.53c-1.03,1.82-.9,2.65-1.01,3.39-.19,1.15.64,1.97,2.12,1.48.58-.45,1.36-1.27,2.22-3.45l72.92,37.67,4.77,1.85c.33,1.01,1.32,2.48.78,6.06l-224.29-81.51-64.39-17.81-.06-49.4c1.88-2.72,2.55-5.29,2.86-7.8-.02-.53-1.06-1.1-1.44.16Z"/>
  <path class="cls-1" d="M381.01,396.07l-43.04.27-.09-120.86c14.32.7,27.85.88,43.01-.05l.11,120.64Z"/>
  <path class="cls-1" d="M381.01,274.3c-14.54-.2-28.5-.82-43.06.3l.05-117.61h43.01s0,117.31,0,117.31Z"/>
  <path class="cls-1" d="M398.39,155.59l-77.89.61c-.63-2.1.57-3.59,1.54-5.21-1.44-1.81-2.01-3.35-1.95-4.84-.51-2.38,1.03-3.76,2.97-5.27-3.15-3.23-3.17-7.07-2.81-9.97,1.1-3.94,7.13-2.1,10.71-1.83,5.48-5.22,1.33-13.03,3.59-19.46l.87,25.39s.96-.01,1.99.06c-1.54-10.09,1.57-21.05-2.32-30.76-3.17,2.31.36,3.39,0,4.7-3.8-2.95-7.99-2.1-13.21-1.91l1.81-19.79h72.06c.22,6.72.95,12.13,2.62,19.3-4.69,1.1-10.39,2.22-14.04-2.73-.94,11.45-2.69,21.52-.24,32.75,2.22-8.76.21-16.91.99-25.14.01-.48.33-.84.63-.92l.55,18.03c4.21,1.62,8.09-.06,13.09.4-1.53,8.62-1.61,15.93-.96,26.6Z"/>
  <path class="cls-1" d="M397.05,302.47c-5.53-1.17-4.33,4.16-3.92,8.08-1,3.56,4.39,1.84,7.05,5.48-2,4.67-7.74,2.51-7.57,5.78.13,3.63-.42,7.41,2.19,9.15,2.15-.78,4.13-.24,4.76,1.45.13,1.33-.81,3.38-2.53,4.8.81,2.32,1.71,3.8,2.31,6.37.44,1.6-2.26,2.24-3.18,5.23,1.2,1.4,3.27,3.1,3.23,3.75.6,3.02-.75,4.74-2.49,6.69,1.26,1.89,2.29,3.3,2.53,5.21.3,1.92-.5,3.8-3.31,4.23,4.53,4.54,3.63,8.62,1.25,12.81,5.17,4.77-1.82,8.34,1.56,13.85-4.84,2.37-9.83.3-16.82.82v-120.69c6.32.49,10.7.42,15.73-.57-5.28-.99-9.58-.76-15.71-.19l-.19-117.4,17.84-.11c-.59,3.45-2.18,4.38-3.39,6.23,2.3.38,3.51,2,3.31,4.06-.05,1.88-.87,3.8-2.6,5.59,3.04,3.43,3.31,7.6-.24,10.94,3.06,3.23,3.43,7.22.07,10.39,1.33,1.85,2.59,3.5,2.67,5.1.09,2.6-1.06,4.42-3.55,5.9,1.94.96,3.22,2.4,3.44,4.09.31,2.4-.46,4.53-2.32,6.52,3.48,3.49,2.94,7.88-.14,11.47,1.7,1.49,2.41,2.83,2.62,4.91.2,1.17.13,3.23-3.03,3.53,3.98,5.24,1.87,9.17,1.11,13.5,1.14,13.97.85,27.37.14,41.55.66,3.71,3.98,9.13-.84,11.47Z"/>
  <path class="cls-1" d="M365.31,645.01c-1.22-15.6-.51-31.13-5.57-47.12-6.44,15.22-4.05,31.35-6.67,47.05l-23.61.19-3.53-18.2c3.46.21,7.08.97,9.86-1.99.59,2.49-.71,5.7,2.78,7.34l-4.88-29.27c-1.13,6.46-5.71,2.18-10.27,2.92l-2.6-24.97h77.62s-2.33,25.39-2.33,25.39c-4.1-.52-7.55-1.07-9.87,1.46-.2-2.21.06-2.96.32-4.3-.23-.32-1.3-.77-2.15-1.01l-4.1,28.77c.16.66.61.77.5.72,2.35-1.26,1.43-3.61,2.17-6.23,3.62,1.77,6.66,1.46,10.54,1.65-2.02,6.24-2.67,11.14-3.04,17.32l-25.18.3Z"/>
  <path class="cls-1" d="M395.95,443.3l3.6,6.3c.48,3.06-.71,4.69-2.65,6.69,1.54,2.07,2.84,3.77,2.78,6.16-.14,1.87-1.54,3.58-3.21,4.98,2.04,1.18,3.13,2.43,3.27,5.24.64,1.14-3.39,3.84-1.09,5.78l-.06,93.71c-1.65,1.12-2.17,2.28-2.12,3.28l2.53,4.38-17.04-.18.14-182.1c6.53.44,11.26-.06,17.13-.3.27,2.91-1.02,4.1-2.98,6.04,1.85.89,3.15,2.24,3.25,3.23.3,2.94-.62,4.7-2.44,6.75,3.19,3.19,2.9,7.41-.33,10.95,1.29,2.07,2.66,3.73,2.96,5.29.11,2.16-1.32,3.77-2.98,5.48,1.91,1.99,3.1,3.2,2.86,6.36.48,1.01-.64,3.47-3.63,1.94Z"/>
  <path class="cls-1" d="M336.29,579.81c-5.82-.11-11.31,1.45-15.67-.76.41-2.25,1.5-2.8,2.02-3.49-.49-1.12-1.25-1.83-2.3-3.08l.32-175.53c5.24.67,9.29,1.18,15.48.43l.15,182.44Z"/>
  <polygon class="cls-1" points="336.42 274.37 320.8 274.32 321.04 157.34 335.86 156.75 336.42 274.37"/>
  <path class="cls-1" d="M320.37,330.41c5,1.2,6.9-.27,6.18-4,1.15-3.71.91-7.56-3.51-7.01-2.89.39-3.61-1.92-3-3.98-.17-2.1,2.7-2.74,5.02-1.53,2.75-1.99,1.35-5.28,1.31-8.52.17-3.04-2.94-3.6-6.78-3.81,1.8-9.16,1.25-17.02,1.1-25.9l15.87.25-.21,120.1c-6.1-.12-11.6,1.29-15.61.04l-.38-65.64Z"/>
  <path class="cls-1" d="M432.79,710.86l43.38,23.24c1.94.06,3.32,1.11,4.45,2.51.05,1.29.51,3.39-.87,5.61l-48.3-19.29c.13.38.47,1.31.33,2.02l48.43,19.18-.2,2.55-32.84-10.7c-.07.03-.42.65.35.89l14.74,5.56c-.47,1.52-.37,2.19-.38,3.05.19.25.77.63,1.45.2.65-.12,1.23-.93,1.02-2.41l21.19,7.08c.44,2.6,1.2,5.52-1.1,6.48l-108.55-23.81,4.18-20.51c3.04,2.36,6.05,4.97,10.27,3.31l-10.77-3.94c-.63-8.79-1.86-18.86,3.02-26.76,2.46,7-1.33,12.7-2.22,18.63l44.99,17.76c-1.2,2.1-1.64,3.24-1.83,5.76l-30.89-11.04c.14.62.02,1.16-.58,1.56l54.26,18.65c.12-.4.32-.72.75-1.1l-20.02-6.78c1.16-3.45,1.82-5.1,3.67-6.75-3.9-.5-5.93-2.31-8.75-2.45-2.83-1.68.23-5.06,1.11-7.37.75-3.6,2.46-3.29,6.76-3.98-3.6-1.02-6.05-1.96-8.83-3.59-2.69-1.56-2.47-4.93-.72-8.76,6.73,2.84,12.87,6.76,18.77,11.41-.36.87-.98,1.5-1.68,1.94-.61,1.44,1.09,1.41,1.17,1.07,1.44-.03,2.39-.41,3.41-2.18l36.48,21.88c-.84.8-1.19,2.05-1.27,2.64l-44.38-21.55Z"/>
  <path class="cls-1" d="M395.2,85.59l-71.77.25c2.2-4.54,6.18-2.2,7.93-2.45,2.36-2.46,3.32-4.86,4.77-7.45,1.59-10.97,10.14-16.77,19.77-18.85,1.75-5.4,7.69-1.65,11.31,1.6,8.36,2.67,13.22,6.62,14.17,15.33,2.56,1.98,2.2,5.89,4.78,7.16,1.74,3.74,5.3-.31,9.04,4.43Z"/>
  <path class="cls-1" d="M234.5,370.74l-.51,14.27c-3.37.2-6.07,1.06-8.58,2.32-2.61-4.41-1.89-9-6.22-12.91l39.68-14.75,59.98-15.89c-.17,3.45-.27,4.93.05,5.86-.59,2.81-4.03,1.62-5.76,1.66-6.05-.54-11.37.57-15.63,3.62-2.32,5.09-2.64,11.09-.95,17.51-10.32,2.6-20.23-1.02-30.16-1.88l-31.9.18Z"/>
  <path class="cls-1" d="M485.69,370.73l-32.37-.55c-9.53,1.21-19.71,4.4-30.12,2.42.32-6.52,1.33-12.85-1.78-17.29-3.75-3.7-9.55-4.7-15.53-4.32-1.83.03-4.31.98-5.9-1.21.32-.79,1.58-2.9.71-4.74,1.17-2.08,3.67-.47,5.95.06,31.22,8.62,61.83,15.65,92.24,28.75l-4.86,13.05c-3.5-.9-7.46-1.76-8.28-3.34l-.06-12.82Z"/>
  <path class="cls-1" d="M362.48,728.6c-2.53-.03-4.43.21-5.98-.29-3.69-42.69-3.46-84.01,2.95-127.13,6.44,42.77,6.45,85.17,3.04,127.42Z"/>
  <path class="cls-1" d="M486.86,398.2l-85.35.08c-.96-3.79-.93-7.8-.19-11.75l85.53.15.02,11.51Z"/>
  <path class="cls-1" d="M318.03,398.52l-85.49.08c-1.01-3.58-.65-7.45-.31-11.79l85.7-.07c.73,3.88.9,6.36.1,11.78Z"/>
  <path class="cls-1" d="M341.37,711.96c-.74-8.06,1.9-14.94,2.79-23.02-3.02-9.2-4.34-19.01-8.54-26.37-7.33-1.46-3.3-9.86-6.44-15.63l24.29-.58c-1.47,22.73-1.5,43.64.53,65.92l-12.63-.32Z"/>
  <path class="cls-1" d="M607.31,433.95l-116.08-34.8c-.3-3.85-.89-6.91,1.16-11.18l117.23,42.52-2.31,3.46Z"/>
  <path class="cls-1" d="M384.2,661.45c-9.16,14.44-11.59,32.59-5.64,49.93-4.78,1.14-8.78.56-14.07.55,2.6-22.24,3.1-43.67.69-65.94l24,.16c-1.76,4.98,1.08,12.89-4.98,15.3Z"/>
  <path class="cls-1" d="M228.77,399.09l-117.27,34.94c.16-1.61.12-3.12-.26-4.32l114.73-41.1c3.06,2.38,2.69,4.44,2.8,10.49Z"/>
  <polygon class="cls-1" points="687.72 456.95 630.15 439.88 629.98 425.49 687.62 446.44 687.72 456.95"/>
  <path class="cls-1" d="M89.67,439.91l-57.66,17.27c-.97-3.48-.84-6.71.16-10.23l57.1-21.3.41,14.26Z"/>
  <path class="cls-1" d="M358.49,41.71l-19.61,11.3c-3.88,3.93-4.03,11.24-10.29,14.55,2.46-11.69,7.91-22.04,13.26-31.97,12.44.56,23.64.55,36.27,0,5.59,12.77,12.57,24.52,13.33,38.97-5.51-16.44-17.28-28.42-32.96-32.84Z"/>
  <path class="cls-1" d="M263.93,721.09l-28.54,15.12c-.11-1.43-.47-2.08-1.54-2.78l65.7-38.58c.56,3.25,1.55,6.07-.33,9.36-.66,1.23-3.59.23-4.89,1.24l-29.04,15.87.21.6c9.37-4,18.54-7.91,28.41-14.09,2,2.49,2.51,6.14,4.54,10.7l-17.45,6.99.54.47c2.63.15,4.41-.75,6.23-2.06,2.09-.43,3.29,1.85,4.37,4.31l-53.03,18.92c.06-1.22-.28-2.08-.68-2.66l42.32-17.53-.4-1.33-40.92,16.59c-.95-2.16-.9-3.64-.5-5.51.39-.83,1.68-1.84,3.28-2.56l22.56-11.43-.83-1.64Z"/>
  <path class="cls-1" d="M245.59,260.21c-3.55,1.56-5.7,3.09-7.97,2.99-3.87.67-4.15-1.15-5.77-4.59-.89,2.81-1.39,4.48-4,3.61-.63-.36-2.99.37-3.77-.71.38-1.99.57-3.54,1.19-5.54-.27-2.36-.76-5.35,3.13-5.17.77-.61,3.96.15,3.3,2.69,7.15-5.84,18.48-4.4,25.9-.76,2,.37,2.72-2.9,3.87-1.74,3.85.72,3.68,3.54,3.44,5.96.77,1.65,1.92,3.58.15,5.51l-4.77.47c-1.76.36.02-2.12-2.53-4.59-.98,3.37-1.21,5.46-3.41,4.78-3.62.7-5.61-.87-8.76-2.9Z"/>
  <polygon class="cls-1" points="484.22 385.17 450.87 385.25 450.84 372.09 484.64 371.76 484.22 385.17"/>
  <polygon class="cls-1" points="528.59 399.22 495.59 387.79 499.88 375.8 532.66 387.67 528.59 399.22"/>
  <polygon class="cls-1" points="358.02 751.62 347.67 750.96 340.88 713.11 354.02 713.08 358.02 751.62"/>
  <path class="cls-1" d="M371.62,749.5c-2.06,2.9-7.34,2.94-10.33.83,1.6-12.91,3.26-24.71,3.47-37.35l13.3.12-6.44,36.4Z"/>
  <path class="cls-1" d="M488.39,258.54c-2.39,5.34-6.12,5.06-9.59,3.45-2.71-1.21-4.8-2.83-6.81-6.18-1.27,2.45-.84,4.06-.95,5.81-1.23,1.57-3.54,1.18-5.57.83-2.21.02-2.5-1.69-3.22-4.67-1.44,2.69-1.24,4.31-2.81,4.32-2.14.05-4.47.57-5.42-1.08.38-1.48.09-3.33.82-5.26-.37-2.16.09-4.88,2.73-4.85,2.07-1.59,3.22-.39,4.43,1.14,7.34-3.79,18.8-4.06,25.73.55,1.59-.79,2.41-2,3.63-1.47,4.06.59,3.94,4.27,3.54,6.89,1.81,3.19.64,4.81-2.4,3.94-2.75.85-3.94-.83-4.11-3.4Z"/>
  <polygon class="cls-1" points="191.15 399.61 186.86 387.98 219.27 376.48 224.04 387.7 191.15 399.61"/>
  <path class="cls-1" d="M268.13,385.52c-11.38-.76-21.82-.68-32.91-.01-.23-4.92-.54-8.72.27-13.17l32.53-.26.11,13.43Z"/>
  <path class="cls-1" d="M469.1,288.86c-5.51,1.44-10.61.81-15.9.31l.05-25.84,15.9.54-.05,24.99Z"/>
  <path class="cls-1" d="M238.88,289.64l-15.57.2c-.86-8.94-.08-17.11.74-26.26,5.23.37,9.61.53,15.32.49l-.5,25.57Z"/>
  <path class="cls-1" d="M559.92,410.81l-29.66-10.62c.53-3.78,1.97-7.49,3.91-11.65l29.65,10.82-3.89,11.45Z"/>
  <path class="cls-1" d="M159.51,410.83c-1.81-3.3-3.04-7.46-3.85-11.21l29.65-11.07,3.96,11.68-29.76,10.6Z"/>
  <path class="cls-1" d="M259.91,315.93c-1.56,1.46-3.65,2.11-4.96.85-1.51-1.61-1.73-4.11.61-5.53l51.56-26.12c1.71.76,2.89-.44,3.01-.8,1.04-2.84,2.67-.37,2.4-.31.51,2.42.43,3.13.22,5.26l-52.84,26.65Z"/>
  <path class="cls-1" d="M463,317.78l-57.62-29.54c1.52-2.1,2.16-3.75,2.28-5.62l58.34,29.51c-.39,2.01-.83,3.3-3,5.65Z"/>
  <path class="cls-1" d="M129.69,421.46c-2.86-3.54-3.41-6.77-4.97-10.78l29.09-10.56,4.31,11.43-28.42,9.91Z"/>
  <path class="cls-1" d="M590.37,421.67c-9.83-3.85-18.49-7.05-28.62-10.03l3.7-11.94c10.11,4.02,19.33,6.21,28.73,11.09l-3.81,10.88Z"/>
  <path class="cls-1" d="M266.44,289.2c-4.88,1.92-9.98.21-15.68.54l.05-25.06,13.58-.77c-1.33,8.59,1.69,15.56,2.05,25.29Z"/>
  <path class="cls-1" d="M496.37,288.37c-4.17,2.26-10.37,1.42-15.54.69l-.06-25.01,13.29-.71c-1.56,9,2.55,15.21,2.31,25.03Z"/>
  <path class="cls-1" d="M421.61,370.23l-21.15-.3c0-7.04-1.15-12.59.65-17.83,7.02-.37,13.13-.66,17.71,2.62,4.16,3.5,3.83,10.18,2.79,15.51Z"/>
  <path class="cls-1" d="M318.77,370.71c-8.25-.92-14.81-.52-21.6-.92-.85-6.76-.27-12.63,4.38-15.16,4.78-2.77,10.56-2.47,17.01-1.74l.21,17.82Z"/>
  <path class="cls-1" d="M100.28,432.21c-2.06-3.63-3.28-7.41-4.29-11.1l26.99-10.22,4.9,11.53-27.61,9.79Z"/>
  <polygon class="cls-1" points="619.58 431.84 591.47 422.16 596.24 411.05 623.34 421.39 619.58 431.84"/>
  <path class="cls-1" d="M295.47,727.12c-.05-2.13-.06-3.55-1.95-5.57l45.01-17.6c-.61-4.87-2.48-9.23-1.08-13.99,2.04,7.35,4.15,13.73,2.61,21.6l-44.58,15.56Z"/>
  <path class="cls-1" d="M300.2,716.85l-3.94-9.29,24.06-12.73c3.35,3.23,4.27,7.11,6.74,11.65l-26.85,10.37Z"/>
  <path class="cls-1" d="M415.14,715.3c-8.02-2.89-15.13-4.71-22.41-9.22l5.41-11.43,24.67,12.93c-1.34,5.07-3.34,10.69-7.67,7.73Z"/>
  <path class="cls-1" d="M370.9,752.92l-6.24,19.78-10.61.38-5.07-19.96c3.69-.62,5.73-.81,8.45-.37,1.31,1.53.59,4.4,1.98,7.32.83-2.47.88-5.09,1.58-6.68,3.02-1.22,4.29-1.3,9.9-.47Z"/>
  <path class="cls-1" d="M701.78,461.65c-4.17-1.67-8.19-3.55-12.7-3.83l1.69-24.16c-2.06.13-5.94-1.11-4.02-3.28,1.5-1.48,1.82-4.68,2.99-5.11,2.44,1.66,3.8,3.83,3.81,6.06,7.34,8.79,10.7,18.14,8.24,30.33Z"/>
  <path class="cls-1" d="M30.36,457.14l-12.58,4.73c-2.68-11.16-.02-21,7.71-29.76,0-1.97.82-4.4,2.61-5.56,1.97-1.56,3.51,1.3,4.07,3.84,1.84,2.25-.86,3.74-3.69,3.85l1.88,22.9Z"/>
  <path class="cls-1" d="M533.75,353.69l-47.04-24.21c-2.96-1.74-3.56-4.98-2.47-6.99l54.52,27.52c.57,2.11-.08,3.29-.83,4.56-.79,1.02-2.57.62-4.19-.88Z"/>
  <path class="cls-1" d="M182.7,355.15c-1.73.09-2.64-1.62-2.47-3.2.28-1.39,1.74-2.17,3.24-3.07l52.51-26.92c.53,4.95-2.62,8.86-7.51,9.68l-45.78,23.51Z"/>
  <path class="cls-1" d="M318.76,385.89c-7.75-1.04-13.79-1.2-21.42-.03l-.14-14.46,21.7-.15-.15,14.64Z"/>
  <path class="cls-1" d="M421.99,385.28c-6.94-.14-13.1-.57-20.61.45-2.06-4.23-1.44-9.19-.35-14.05l20.63-.76.32,14.36Z"/>
  <path class="cls-1" d="M295.61,385.87c-8.92-1.18-16.29-1.12-25.19-.26-1.32-3.98-.88-8.31-.34-12.77,8.88,1.08,16.89,2.77,25.85,2.06l-.32,10.97Z"/>
  <path class="cls-1" d="M423.95,385.52c-1.28-3.95-.8-7.01-.31-10.89,9.02.77,16.8-.25,25.79-2.35l-.14,12.92-25.34.32Z"/>
  <path class="cls-1" d="M588.71,380.98l-50.52-25.45,1.7-3.53,50.36,25.24c-.69.93-1.36,2.33-1.54,3.74Z"/>
  <path class="cls-1" d="M301.89,702.46c-1.95-2.12-.52-5.8-.53-8.87l24.36-14.64,5.37,8.74-29.2,14.77Z"/>
  <path class="cls-1" d="M132.7,380.96c-1.69.27-2.53-.86-2.83-1.51-.86-1.65.32-2.9,1.77-4.06l47.47-22.95c.2.6.79,2.14,1.94,3.47l-48.35,25.05Z"/>
  <path class="cls-1" d="M417.41,702.35l-28.7-14.5,5.19-8.93,23.48,14.52c1.22,2.92,1.1,6.51.02,8.9Z"/>
  <path class="cls-1" d="M636.89,406.03l-47.61-25.44,2.64-2.72c15.69,8.43,32.6,15.46,47.03,25.28l-2.06,2.87Z"/>
  <path class="cls-1" d="M129.35,383.05l-47.44,22.75c-.18-.8-.71-2.16-1.29-3.05l44.44-23.83c1.64-.34,2.78-.31,3.79.65.52.67,1.91,1.76.51,3.48Z"/>
  <path class="cls-1" d="M685.97,430.77c-16.06-7.68-33.06-15.06-47.94-24.67l1.91-3.16,47.25,24.59c-.82.77-1.22,2.01-1.22,3.24Z"/>
  <path class="cls-1" d="M398.23,116.75c1.22,3.9,1.09,7.06.41,10.23-3.32-.01-6.32.09-9.97-.2-1.04-1.89-1.55-5.5-1.68-8.79.08-3.01-.56-6.09.46-8.98,2.19-1.06,5.97-.68,8.35-.96,3.87.77,2.86,5.52,2.42,8.7Z"/>
  <path class="cls-1" d="M332,126.25c-3.73,1.22-7.67,1.01-11.31.27l1.29-18.22,11.09.51c-.57,6.11-1.54,11.17-1.08,17.44Z"/>
  <path class="cls-1" d="M78.52,408.18l-45.15,22.93c-.11-1.1-.55-2.44-1.22-3.36l43.51-22.95c1.7.7,3.25-.66,3.48-.34,2.63,1.08,2.49,3.86-.62,3.72Z"/>
  <path class="cls-1" d="M237.65,304.68c-4.27.57-8.14.64-12.4-.11l-1.14-13.42c5.62-.3,10.18-1.28,13.08,2.05,2.71,2.75,2.89,7.61.46,11.47Z"/>
  <path class="cls-1" d="M264.45,297.32c.55,2.9.35,5.93-1.66,7.14-2.45.75-5.49.89-9.37.08-4.89,1.05.71,3.32.25,1.41,5.52,2.55-1.79,3.82-.27,3.42-5.14,2.15-4.41-2.81-2.18-5.09-2.61-4.8,1.39-19.3,5.65-8.8-.05-5.78,1.39-3.77,1.82-4.4,9.39-1.54,7.2,1.79,5.76,6.23Z"/>
  <path class="cls-1" d="M464.25,290.76c4.04,2.36,5.51,6.5,4.47,10.98-.11,3.49-4.21,3.16-7.86,2.81-5.65,1.32-6.03-2.63-6.24-7.71-.93-1.97-1.17-4.54-.24-5.78l6.28-.39c1.73.43,1.88,3.01,1.15,5.49,3.35-.27,2.3-2.85,2.45-5.41Z"/>
  <path class="cls-1" d="M485.91,296.12c3.39-.85,1.1-4.11,1.27-4.47,2.57-2.14,5.22-.48,5.59-.92,3.84.38,2.71,4.03,1.87,6.11.5,4.88-.81,8.82-5.24,7.51-4.27.45-9.27,1.09-8.72-3.7-.65-4.09-.28-8.45,4.59-10.2l.65,5.67Z"/>
  <path class="cls-1" d="M394.89,616.3c-.91,3.22-1.21,6.18-1.26,8.58-2.12,1.71-5.21,1.37-8.37.52-1.27-3.98.58-8.16,1.71-12.54.12-2.47.89-5.03,2.7-5.72,2.34-.19,5.13-.43,6.46,1.2l-1.24,7.95Z"/>
  <path class="cls-1" d="M333.08,617.52c.57,2.69.95,5.06.93,7.08-1.27,1.94-4.27,1.72-7.92,1.43-1.55-5.76-2.48-12.31-2.04-18.78,3.07-.73,6.18-.66,7.21,1.98.56,2.31,1.46,5.03,1.82,8.29Z"/>
  <path class="cls-1" d="M628.99,423.95c.11,4.1.45,6.36-1.27,8.91-1.4-1.19-4.95-1.27-5.51-3.26,1.01-3.88,1.67-7.61,4.27-9.62l63.01,22.99-.64,2.28-59.86-21.29Z"/>
  <path class="cls-1" d="M90.65,423.86l-56.85,20.61c.17-.91.46-1.82.25-2.52l59.92-21.73c1.11,3.56,1.91,5.73,3.15,8.61.54,2.78-4.61,2.04-5.42,5.46.56,2.01.56,3.78-.36,4.88l-.69-15.31Z"/>
  <path class="cls-1" d="M388.38,686.75c-2.67.09-5.11-1.15-6.53-3.66l5.67-17.84c.66,5.08,2.62,7.14,6.5,9.54-.8,4.32-3.78,7.6-5.63,11.96Z"/>
  <path class="cls-1" d="M492.84,305.91c.32,4.87-.36,8.2-3.15,8.88-3.4-.27-5.82.7-10.91.57l1.18-9.65,12.87.21Z"/>
  <path class="cls-1" d="M238.73,305.67c.84,3.56,1.77,7.48-1.81,9.84-1.83.32-4.89-.98-8.11-.68-2.23-.83-2.81-4.37-2.9-8.6,4.01-.43,7.45.6,12.82-.56Z"/>
  <path class="cls-1" d="M334.91,686.08c-5.78,2.4-5.97-3.52-7.6-6.12-2.69-4-.73-6.71,4.67-9.53,1.93,3.69,5.47,11.15,2.93,15.65Z"/>
  <path class="cls-1" d="M388.65,698.88c.54,2.32,1.13,3.71.68,4.08-2.23,2.65-4.65,1.23-6.46-.49l2.69-14.31,7.56,3.8c1.33,2.41-.95,5.06-4.47,6.92Z"/>
  <path class="cls-1" d="M336,702.71c-1.47,1.42-3.25,2.55-5.43,1.4-.71-.58-.97-3.29-.48-5.22-1.2-2.68-4.49-3.62-4.95-5.62,2.3-2.6,4.88-3.16,8.27-4.99,1.81,4.25,2.24,9.26,2.59,14.43Z"/>
  <path class="cls-1" d="M359.56,751.13l-2.48-16.33c.75-1.12.23-2.59.09-2.9.34-1.92,2.13-1.67,2.39-1.7,1.71,1.01,2.21,2.01,2.77,3.77-1.65,5.7-2.04,11-2.78,17.16Z"/>
  <path class="cls-1" d="M626.41,437c-5.95.92-13.97-.72-18.35-5.77,6.28-1.39,12.17,2.94,18.35,5.77Z"/>
  <path class="cls-1" d="M94.21,436.82c4.67-3.24,10.42-4.78,15.85-6.33,0,.91.15,2.03.36,2.63l-14.78,5.27c-.96-.72-1.25-1.27-1.44-1.57Z"/>
  <path class="cls-1" d="M253.57,317.39c-5.61,2.56-11.19,4.18-16.16,4.23,5.84-3.58,11.97-9.76,16.16-4.23Z"/>
  <path class="cls-1" d="M320.13,312.76c1.06-3.49,2.34-5.83-1.08-9.13,3.25-1.94,6.15-.22,6.43.97.45,4.61,1.46,8.86-5.35,8.16Z"/>
  <path class="cls-1" d="M247.8,322.44c-3.9,3.52-7.59,4.83-12.1,6.58.51-5.81,5.78-8.3,12.1-6.58Z"/>
  <path class="cls-1" d="M484.02,328.78c-3.82-.65-7.38-3.01-11.85-6.01,4.7-1.87,9.83-.33,11.85,6.01Z"/>
  <path class="cls-1" d="M477.14,318.93c-4.06,2.02-9.11.24-11.59-2.71,3.76-4.13,8.27.05,11.59,2.71Z"/>
  <path class="cls-1" d="M399.53,311.87c-4.86,2.36-6.18-.9-5.46-4.32-.86-3.31,1.01-5.99,5.22-4.09-1.78,3.03-2.34,6.03.24,8.41Z"/>
  <path class="cls-1" d="M235.9,748.83c-4.55-.75-2.79-10.46.86-11.9-.26,3.47,1.27,7.47-.86,11.9Z"/>
  <path class="cls-1" d="M484.57,748.74c-4.61-1.94-3.17-8.99-1.46-12.03,2.61,3.8,3.16,8.11,1.46,12.03Z"/>
  <path class="cls-1" d="M320.12,329.33c-.19-1.75,1.09-2.98,1.65-4-.15-1.48-1.51-2.19-2.14-4.67,3.75-.87,6.36,1.08,5.89,3.84.73,3.6-.41,6.69-5.4,4.83Z"/>
  <path class="cls-1" d="M396.42,324.54c1.08,1.26,2.11,2.32,3.18,3.97-.49,2.11-2.88,1.2-3.61,1.23-2.55.11-2.67-2.83-1.75-4.64-.77-1.62-.78-3.36.87-4.15.23.21,1.48.04,3.37.17.76,1.06.24,2.66-2.06,3.42Z"/>
  <path class="cls-1" d="M267.5,277.11c-3.39-4-2.06-7.94-1.83-12.14,3.82,2.92,4.81,7.85,1.83,12.14Z"/>
  <path class="cls-1" d="M318.15,283.05c-2.41-.26-3.3-1.43-4.11-2.74-.13-1.24.13-2.7,2.58-4.18.27-1.2,3.29-1.89,2.1,1.05-.12,1.66.5,3.08-.57,5.87Z"/>
  <path class="cls-1" d="M498.09,276.33c-4.23-1.97-3.06-6.83-.73-9.43,1.62,2.57,2.46,6.69.73,9.43Z"/>
  <path class="cls-1" d="M484.35,735.9c-2.51-.23-3.59-1.52-4.69-1.99-2.11-.84-2.04-3.1.3-5.09,2.51,1.45,4.03,4,4.38,7.08Z"/>
  <path class="cls-1" d="M469.61,306.52c.46,3.71-1.58,3.79-3.21,2.77-1.45-.8-3.29-1.29-5.46-3.09,2.63-1.2,6-.21,8.67.31Z"/>
  <path d="M358.77,421.99c-3.07-5.77-5.58-12.55.75-15.92,3.49,1.04,4.63,4.89,3.94,7.91-1.06,3.12-1.64,6.97-4.69,8.01Z"/>
  <path d="M359.6,466.59c-2.53-3.17-2.35-7.19-.55-10.04,4.04,1.69,2.73,6.7.55,10.04Z"/>
  <path d="M359.52,381.72c-3.67-3.95-6.45-13.53.34-16.83,5.43,3.71,4.24,10.39-.34,16.83Z"/>
  <path d="M359.63,130.82c-2.25-2.18-3.33-7.66.64-9.69,2.42,2.65,1.3,7.16-.64,9.69Z"/>
  <path d="M359.39,595.05c-2-3.23-2.77-8.21.64-10.9,3.09,3.05,2.93,8.27-.64,10.9Z"/>
</svg>